<?xml version="1.0" standalone="no"?>
<!DOCTYPE svg PUBLIC "-//W3C//DTD SVG 20010904//EN"
 "http://www.w3.org/TR/2001/REC-SVG-20010904/DTD/svg10.dtd">
<svg version="1.0" xmlns="http://www.w3.org/2000/svg"
 width="192.000000pt" height="192.000000pt" viewBox="0 0 192.000000 192.000000"
 preserveAspectRatio="xMidYMid meet">
<metadata>
Created by potrace 1.14, written by Peter Selinger 2001-2017
</metadata>
<g transform="translate(0.000000,192.000000) scale(0.100000,-0.100000)"
fill="#000000" stroke="none">
<path d="M0 960 l0 -960 960 0 960 0 0 960 0 960 -960 0 -960 0 0 -960z m1420
5 l0 -205 -39 0 c-23 0 -41 5 -44 13 -3 9 -7 9 -21 -2 -9 -7 -34 -14 -56 -14
-71 0 -123 54 -123 126 0 106 85 162 186 122 15 -6 17 1 17 79 l0 86 40 0 40
0 0 -205z m-910 125 l0 -40 -55 0 c-54 0 -55 0 -55 -30 0 -29 1 -30 50 -30
l50 0 0 -40 0 -40 -50 0 -50 0 0 -75 0 -75 -50 0 -50 0 0 185 0 185 105 0 105
0 0 -40z m1080 -67 c-17 -67 -34 -111 -46 -120 -21 -16 -74 -17 -74 -2 0 14
50 211 56 221 3 4 25 8 49 8 l43 0 -28 -107z m-856 -17 c49 -20 76 -60 76
-113 0 -85 -54 -136 -144 -136 -93 0 -149 49 -149 131 0 99 113 161 217 118z
m310 0 c49 -20 76 -60 76 -113 0 -85 -54 -136 -144 -136 -93 0 -148 47 -150
128 -2 100 113 165 218 121z m484 -152 c26 -18 30 -65 7 -84 -8 -7 -26 -12
-40 -12 -35 0 -55 19 -55 53 0 27 30 59 55 59 6 0 21 -7 33 -16z"/>
<path d="M1242 928 c-7 -7 -12 -27 -12 -45 0 -26 6 -36 25 -45 55 -25 109 39
70 82 -20 22 -65 26 -83 8z"/>
<path d="M622 928 c-18 -18 -14 -63 6 -81 52 -47 126 28 76 77 -18 19 -65 21
-82 4z"/>
<path d="M932 928 c-17 -17 -15 -64 4 -82 33 -34 94 -7 94 42 0 43 -67 71 -98
40z"/>
</g>
</svg>
